<?xml version="1.0" encoding="ISO-8859-1" standalone="no"?>
<!DOCTYPE svg PUBLIC "-//W3C//DTD SVG 20010904//EN"
"http://www.w3.org/TR/2001/REC-SVG-20010904/DTD/svg10.dtd">
<svg xmlns="http://www.w3.org/2000/svg"
 xmlns:xlink="http://www.w3.org/1999/xlink" xml:space="preserve"
 width="1000px" height="1000px"
 viewBox="0 0 1000 1000" >
 <line style="stroke:blue;stroke-width:4;stroke-opacity:1" x1="500.0" y1="1000.0" x2="625.0" y2="875.0" />
 <line style="stroke:black;stroke-width:5;" x1="500.0" y1="1000.0" x2="375.0" y2="1000.0" />
 <line style="stroke:black;stroke-width:5;" x1="250.0" y1="1000.0" x2="375.0" y2="1000.0" />
 <line style="stroke-dasharray: 15, 10;stroke:red;stroke-width:4;" x1="250.0" y1="1000.0" x2="312.5" y2="937.5" />
 <line style="stroke:blue;stroke-width:4;stroke-opacity:1" x1="375.0" y1="1000.0" x2="312.5" y2="937.5" />
 <line style="stroke:black;stroke-width:5;" x1="0.0" y1="1000.0" x2="125.0" y2="1000.0" />
 <line style="stroke:black;stroke-width:5;" x1="250.0" y1="1000.0" x2="125.0" y2="1000.0" />
 <line style="stroke:blue;stroke-width:4;stroke-opacity:1" x1="312.5" y1="937.5" x2="250.0" y2="875.0" />
 <line style="stroke:blue;stroke-width:4;stroke-opacity:1" x1="125.0" y1="1000.0" x2="250.0" y2="875.0" />
 <line style="stroke:black;stroke-width:5;" x1="0.0" y1="625.0" x2="0.0" y2="750.0" />
 <line style="stroke:black;stroke-width:5;" x1="0.0" y1="1000.0" x2="0.0" y2="875.0" />
 <line style="stroke-dasharray: 15, 10;stroke:red;stroke-width:4;" x1="250.0" y1="875.0" x2="0.0" y2="875.0" />
 <line style="stroke:black;stroke-width:5;" x1="0.0" y1="750.0" x2="0.0" y2="875.0" />
 <line style="stroke-dasharray: 15, 10;stroke:red;stroke-width:4;" x1="0.0" y1="625.0" x2="62.5" y2="687.5" />
 <line style="stroke-dasharray: 15, 10;stroke:red;stroke-width:4;" x1="0.0" y1="750.0" x2="62.5" y2="687.5" />
 <line style="stroke:blue;stroke-width:4;stroke-opacity:1" x1="0.0" y1="875.0" x2="62.5" y2="687.5" />
 <line style="stroke:black;stroke-width:5;" x1="500.0" y1="1000.0" x2="625.0" y2="1000.0" />
 <line style="stroke-dasharray: 15, 10;stroke:red;stroke-width:4;" x1="625.0" y1="875.0" x2="625.0" y2="1000.0" />
 <line style="stroke:blue;stroke-width:4;stroke-opacity:1" x1="625.0" y1="1000.0" x2="750.0" y2="875.0" />
 <line style="stroke:black;stroke-width:5;" x1="1000.0" y1="625.0" x2="1000.0" y2="750.0" />
 <line style="stroke:black;stroke-width:5;" x1="625.0" y1="1000.0" x2="750.0" y2="1000.0" />
 <line style="stroke:blue;stroke-width:4;stroke-opacity:1" x1="750.0" y1="875.0" x2="875.0" y2="875.0" />
 <line style="stroke-dasharray: 15, 10;stroke:red;stroke-width:4;" x1="750.0" y1="1000.0" x2="875.0" y2="875.0" />
 <line style="stroke-dasharray: 15, 10;stroke:red;stroke-width:4;" x1="875.0" y1="875.0" x2="1000.0" y2="750.0" />
 <line style="stroke:black;stroke-width:5;" x1="1000.0" y1="1000.0" x2="1000.0" y2="875.0" />
 <line style="stroke:black;stroke-width:5;" x1="1000.0" y1="1000.0" x2="875.0" y2="1000.0" />
 <line style="stroke:black;stroke-width:5;" x1="1000.0" y1="750.0" x2="1000.0" y2="875.0" />
 <line style="stroke:black;stroke-width:5;" x1="750.0" y1="1000.0" x2="875.0" y2="1000.0" />
 <line style="stroke:blue;stroke-width:4;stroke-opacity:1" x1="875.0" y1="875.0" x2="1000.0" y2="875.0" />
 <line style="stroke:blue;stroke-width:4;stroke-opacity:1" x1="875.0" y1="875.0" x2="875.0" y2="1000.0" />
 <line style="stroke-dasharray: 15, 10;stroke:red;stroke-width:4;" x1="875.0" y1="1000.0" x2="1000.0" y2="875.0" />
 <line style="stroke:blue;stroke-width:4;stroke-opacity:1" x1="750.0" y1="875.0" x2="750.0" y2="750.0" />
 <line style="stroke:blue;stroke-width:4;stroke-opacity:1" x1="1000.0" y1="625.0" x2="875.0" y2="750.0" />
 <line style="stroke-dasharray: 15, 10;stroke:red;stroke-width:4;" x1="750.0" y1="875.0" x2="875.0" y2="750.0" />
 <line style="stroke:blue;stroke-width:4;stroke-opacity:1" x1="875.0" y1="875.0" x2="875.0" y2="750.0" />
 <line style="stroke:black;stroke-width:5;" x1="1000.0" y1="625.0" x2="1000.0" y2="500.0" />
 <line style="stroke:black;stroke-width:5;" x1="625.0" y1="0.0" x2="750.0" y2="0.0" />
 <line style="stroke:blue;stroke-width:4;stroke-opacity:1" x1="625.0" y1="0.0" x2="687.5" y2="62.5" />
 <line style="stroke-dasharray: 15, 10;stroke:red;stroke-width:4;" x1="750.0" y1="0.0" x2="687.5" y2="62.5" />
 <line style="stroke:black;stroke-width:5;" x1="1000.0" y1="0.0" x2="875.0" y2="0.0" />
 <line style="stroke:black;stroke-width:5;" x1="750.0" y1="0.0" x2="875.0" y2="0.0" />
 <line style="stroke:black;stroke-width:5;" x1="1000.0" y1="500.0" x2="1000.0" y2="375.0" />
 <line style="stroke:black;stroke-width:5;" x1="1000.0" y1="375.0" x2="1000.0" y2="250.0" />
 <line style="stroke:blue;stroke-width:4;stroke-opacity:1" x1="687.5" y1="62.5" x2="750.0" y2="125.0" />
 <line style="stroke:blue;stroke-width:4;stroke-opacity:1" x1="875.0" y1="0.0" x2="750.0" y2="125.0" />
 <line style="stroke:black;stroke-width:5;" x1="1000.0" y1="0.0" x2="1000.0" y2="125.0" />
 <line style="stroke:black;stroke-width:5;" x1="1000.0" y1="250.0" x2="1000.0" y2="125.0" />
 <line style="stroke-dasharray: 15, 10;stroke:red;stroke-width:4;" x1="750.0" y1="125.0" x2="1000.0" y2="125.0" />
 <line style="stroke-dasharray: 15, 10;stroke:red;stroke-width:4;" x1="1000.0" y1="375.0" x2="937.5" y2="312.5" />
 <line style="stroke-dasharray: 15, 10;stroke:red;stroke-width:4;" x1="1000.0" y1="250.0" x2="937.5" y2="312.5" />
 <line style="stroke:blue;stroke-width:4;stroke-opacity:1" x1="1000.0" y1="125.0" x2="937.5" y2="312.5" />
 <line style="stroke:black;stroke-width:5;" x1="0.0" y1="625.0" x2="0.0" y2="499.9999999999999" />
 <line style="stroke:black;stroke-width:5;" x1="0.0" y1="499.9999999999999" x2="0.0" y2="374.9999999999999" />
 <line style="stroke:black;stroke-width:5;" x1="0.0" y1="374.9999999999998" x2="0.0" y2="249.99999999999977" />
 <line style="stroke:black;stroke-width:5;" x1="0.0" y1="0.0" x2="124.99999999999972" y2="0.0" />
 <line style="stroke:black;stroke-width:5;" x1="249.99999999999966" y1="0.0" x2="124.99999999999972" y2="0.0" />
 <line style="stroke:black;stroke-width:5;" x1="0.0" y1="0.0" x2="0.0" y2="124.99999999999972" />
 <line style="stroke:black;stroke-width:5;" x1="0.0" y1="249.99999999999977" x2="0.0" y2="124.99999999999972" />
 <line style="stroke:blue;stroke-width:4;stroke-opacity:1" x1="124.99999999999989" y1="124.99999999999986" x2="-1.1368683772161603E-13" y2="124.99999999999986" />
 <line style="stroke-dasharray: 15, 10;stroke:red;stroke-width:4;" x1="-1.1368683772161603E-13" y1="124.99999999999986" x2="124.99999999999989" y2="-1.4210854715202004E-13" />
 <line style="stroke:blue;stroke-width:4;stroke-opacity:1" x1="-5.6843418860808015E-14" y1="374.99999999999994" x2="125.0" y2="249.99999999999994" />
 <line style="stroke-dasharray: 15, 10;stroke:red;stroke-width:4;" x1="-1.1368683772161603E-13" y1="249.99999999999986" x2="124.99999999999989" y2="124.99999999999986" />
 <line style="stroke-dasharray: 15, 10;stroke:red;stroke-width:4;" x1="249.99999999999986" y1="-1.4210854715202004E-13" x2="124.99999999999989" y2="124.99999999999986" />
 <line style="stroke:blue;stroke-width:4;stroke-opacity:1" x1="124.99999999999989" y1="-1.4210854715202004E-13" x2="124.99999999999989" y2="124.99999999999986" />
 <line style="stroke:blue;stroke-width:4;stroke-opacity:1" x1="125.0" y1="249.99999999999994" x2="124.99999999999989" y2="124.99999999999986" />
 <line style="stroke-dasharray: 15, 10;stroke:red;stroke-width:4;" x1="125.0" y1="249.99999999999994" x2="250.0" y2="125.0" />
 <line style="stroke:blue;stroke-width:4;stroke-opacity:1" x1="124.99999999999989" y1="124.99999999999986" x2="250.0" y2="125.0" />
 <line style="stroke:black;stroke-width:5;" x1="625.0" y1="0.0" x2="499.99999999999983" y2="0.0" />
 <line style="stroke:blue;stroke-width:4;stroke-opacity:1" x1="125.0" y1="249.99999999999994" x2="250.0" y2="249.99999999999994" />
 <line style="stroke-dasharray: 15, 10;stroke:red;stroke-width:4;" x1="625.0" y1="875.0" x2="750.0" y2="750.0" />
 <line style="stroke:blue;stroke-width:4;stroke-opacity:1" x1="875.0" y1="750.0" x2="750.0" y2="750.0" />
 <line style="stroke-dasharray: 15, 10;stroke:red;stroke-width:4;" x1="1000.0" y1="500.0" x2="750.0" y2="750.0" />
 <line style="stroke:blue;stroke-width:4;stroke-opacity:1" x1="250.0" y1="125.0" x2="249.99999999999994" y2="249.99999999999983" />
 <line style="stroke-dasharray: 15, 10;stroke:red;stroke-width:4;" x1="-5.6843418860808015E-14" y1="499.99999999999994" x2="250.0" y2="249.99999999999983" />
 <line style="stroke:blue;stroke-width:4;stroke-opacity:1" x1="750.0" y1="125.0" x2="750.0" y2="250.0" />
 <line style="stroke:blue;stroke-width:4;stroke-opacity:1" x1="1000.0" y1="125.0" x2="750.0" y2="250.0" />
 <line style="stroke-dasharray: 15, 10;stroke:red;stroke-width:4;" x1="937.5" y1="312.5" x2="750.0" y2="249.99999999999997" />
 <line style="stroke:blue;stroke-width:4;stroke-opacity:1" x1="750.0" y1="750.0" x2="750.0" y2="250.0" />
 <line style="stroke:blue;stroke-width:4;stroke-opacity:1" x1="250.0" y1="249.99999999999983" x2="750.0" y2="250.0" />
 <line style="stroke-dasharray: 15, 10;stroke:red;stroke-width:4;" x1="625.0" y1="0.0" x2="625.0" y2="125.0" />
 <line style="stroke:blue;stroke-width:4;stroke-opacity:1" x1="687.5" y1="62.5" x2="625.0" y2="125.0" />
 <line style="stroke-dasharray: 15, 10;stroke:red;stroke-width:4;" x1="750.0" y1="250.0" x2="625.0" y2="125.0" />
 <line style="stroke-dasharray: 15, 10;stroke:red;stroke-width:4;" x1="625.0" y1="875.0" x2="375.0" y2="875.0" />
 <line style="stroke-dasharray: 15, 10;stroke:red;stroke-width:4;" x1="375.0" y1="1000.0" x2="375.0" y2="875.0" />
 <line style="stroke:blue;stroke-width:4;stroke-opacity:1" x1="312.5" y1="937.5" x2="375.0" y2="875.0" />
 <line style="stroke:blue;stroke-width:4;stroke-opacity:1" x1="250.0" y1="875.0" x2="250.0" y2="750.0" />
 <line style="stroke:blue;stroke-width:4;stroke-opacity:1" x1="0.0" y1="875.0" x2="250.0" y2="750.0" />
 <line style="stroke-dasharray: 15, 10;stroke:red;stroke-width:4;" x1="62.5" y1="687.5" x2="250.0" y2="750.0" />
 <line style="stroke:blue;stroke-width:4;stroke-opacity:1" x1="750.0" y1="750.0" x2="250.0" y2="750.0" />
 <line style="stroke:blue;stroke-width:4;stroke-opacity:1" x1="250.0" y1="249.99999999999977" x2="250.0" y2="750.0" />
 <line style="stroke-dasharray: 15, 10;stroke:red;stroke-width:4;" x1="375.0" y1="875.0" x2="250.0" y2="750.0" />
 <line style="stroke:black;stroke-width:5;" x1="249.99999999999966" y1="0.0" x2="374.99999999999994" y2="0.0" />
 <line style="stroke:blue;stroke-width:4;stroke-opacity:1" x1="250.0" y1="124.99999999999993" x2="374.99999999999994" y2="-7.105427357601002E-14" />
 <line style="stroke:black;stroke-width:5;" x1="499.99999999999983" y1="0.0" x2="374.99999999999994" y2="0.0" />
 <line style="stroke:blue;stroke-width:4;stroke-opacity:1" x1="499.99999999999994" y1="-7.105427357601002E-14" x2="374.9999999999999" y2="125.0" />
 <line style="stroke-dasharray: 15, 10;stroke:red;stroke-width:4;" x1="250.0" y1="249.99999999999986" x2="374.9999999999999" y2="125.0" />
 <line style="stroke-dasharray: 15, 10;stroke:red;stroke-width:4;" x1="625.0" y1="125.0" x2="374.99999999999983" y2="124.99999999999993" />
 <line style="stroke-dasharray: 15, 10;stroke:red;stroke-width:4;" x1="374.9999999999999" y1="125.0" x2="374.99999999999994" y2="-7.105427357601002E-14" />
</svg>