<?xml version="1.0" encoding="utf-8"?>
<!-- Generator: Adobe Illustrator 26.5.0, SVG Export Plug-In . SVG Version: 6.00 Build 0)  -->
<svg version="1.1" id="Layer_1" xmlns="http://www.w3.org/2000/svg" xmlns:xlink="http://www.w3.org/1999/xlink" x="0px" y="0px"
	 width="1000px" height="1000px" viewBox="0 0 1000 1000" style="enable-background:new 0 0 1000 1000;" xml:space="preserve">
<line style="fill:none;stroke:#000000;stroke-width:5;" x1="1000" y1="1000" x2="1000" y2="750"/>
<line style="fill:none;stroke:#000000;stroke-width:5;" x1="0" y1="1000" x2="0" y2="750"/>
<line style="fill:none;stroke:#000000;stroke-width:5;" x1="1000" y1="750" x2="1000" y2="500"/>
<line style="fill:none;stroke:#000000;stroke-width:5;" x1="0" y1="750" x2="0" y2="500"/>
<line style="fill:none;stroke:#000000;stroke-width:5;" x1="1000" y1="0" x2="1000" y2="250"/>
<line style="fill:none;stroke:#000000;stroke-width:5;" x1="1000" y1="500" x2="1000" y2="250"/>
<line style="fill:none;stroke:#000000;stroke-width:5;" x1="0" y1="0" x2="0" y2="250"/>
<line style="fill:none;stroke:#000000;stroke-width:5;" x1="0" y1="500" x2="0" y2="250"/>
<line style="fill:none;stroke:#000000;stroke-width:5;" x1="0" y1="1000" x2="250" y2="1000"/>
<line style="fill:none;stroke:#000000;stroke-width:5;" x1="0" y1="0" x2="250" y2="0"/>
<line style="fill:none;stroke:#00FF00;stroke-width:4;" x1="0" y1="750" x2="250" y2="750"/>
<line style="fill:none;stroke:#00FF00;stroke-width:4;" x1="0" y1="500" x2="250" y2="500"/>
<line style="fill:none;stroke:#00FF00;stroke-width:4;" x1="0" y1="250" x2="250" y2="250"/>
<line style="fill:none;stroke:#00FF00;stroke-width:4;" x1="250" y1="1000" x2="250" y2="750"/>
<line style="fill:none;stroke:#00FF00;stroke-width:4;" x1="250" y1="750" x2="250" y2="500"/>
<line style="fill:none;stroke:#00FF00;stroke-width:4;" x1="250" y1="500" x2="250" y2="250"/>
<line style="fill:none;stroke:#00FF00;stroke-width:4;" x1="250" y1="250" x2="250" y2="0"/>
<line style="fill:none;stroke:#000000;stroke-width:5;" x1="250" y1="1000" x2="500" y2="1000"/>
<line style="fill:none;stroke:#000000;stroke-width:5;" x1="250" y1="0" x2="500" y2="0"/>
<line style="fill:none;stroke:#00FF00;stroke-width:4;" x1="250" y1="750" x2="500" y2="750"/>
<line style="fill:none;stroke:#00FF00;stroke-width:4;" x1="250" y1="500" x2="500" y2="500"/>
<line style="fill:none;stroke:#00FF00;stroke-width:4;" x1="250" y1="250" x2="500" y2="250"/>
<line style="fill:none;stroke:#00FF00;stroke-width:4;" x1="500" y1="1000" x2="500" y2="750"/>
<line style="fill:none;stroke:#00FF00;stroke-width:4;" x1="500" y1="750" x2="500" y2="500"/>
<line style="fill:none;stroke:#00FF00;stroke-width:4;" x1="500" y1="500" x2="500" y2="250"/>
<line style="fill:none;stroke:#00FF00;stroke-width:4;" x1="500" y1="250" x2="500" y2="0"/>
<line style="fill:none;stroke:#000000;stroke-width:5;" x1="1000" y1="1000" x2="750" y2="1000"/>
<line style="fill:none;stroke:#000000;stroke-width:5;" x1="500" y1="1000" x2="750" y2="1000"/>
<line style="fill:none;stroke:#000000;stroke-width:5;" x1="1000" y1="0" x2="750" y2="0"/>
<line style="fill:none;stroke:#000000;stroke-width:5;" x1="500" y1="0" x2="750" y2="0"/>
<line style="fill:none;stroke:#00FF00;stroke-width:4;" x1="1000" y1="750" x2="750" y2="750"/>
<line style="fill:none;stroke:#00FF00;stroke-width:4;" x1="500" y1="750" x2="750" y2="750"/>
<line style="fill:none;stroke:#00FF00;stroke-width:4;" x1="1000" y1="500" x2="750" y2="500"/>
<line style="fill:none;stroke:#00FF00;stroke-width:4;" x1="500" y1="500" x2="750" y2="500"/>
<line style="fill:none;stroke:#00FF00;stroke-width:4;" x1="1000" y1="250" x2="750" y2="250"/>
<line style="fill:none;stroke:#00FF00;stroke-width:4;" x1="500" y1="250" x2="750" y2="250"/>
<line style="fill:none;stroke:#00FF00;stroke-width:4;" x1="750" y1="1000" x2="750" y2="750"/>
<line style="fill:none;stroke:#00FF00;stroke-width:4;" x1="750" y1="750" x2="750" y2="500"/>
<line style="fill:none;stroke:#00FF00;stroke-width:4;" x1="750" y1="500" x2="750" y2="250"/>
<line style="fill:none;stroke:#00FF00;stroke-width:4;" x1="750" y1="250" x2="750" y2="0"/>
</svg>
